<?xml version="1.0" encoding="iso-8859-1"?>
<svg version="1.1" id="Capa_1" xmlns="http://www.w3.org/2000/svg" xmlns:xlink="http://www.w3.org/1999/xlink" x="0px" y="0px"
	 viewBox="0 0 511 511" style="enable-background:new 0 0 511 511;" xml:space="preserve">
<g style="fill:#6cc0a4">
	<path d="M334.052,311.05c-5.851-17.434-17.084-29.676-31.63-34.473c-11.735-3.87-24.322-2.465-36.401,4.063
		c-1.012,0.546-2.056,0.999-3.119,1.378c-0.697-8.326-4.181-23.139-19.363-32.839c-3.491-2.23-8.128-1.208-10.358,2.282
		c-2.23,3.491-1.208,8.128,2.282,10.358c9.13,5.833,11.698,14.646,12.379,20.107c-0.974-0.361-1.931-0.785-2.861-1.287
		c-12.079-6.527-24.667-7.933-36.401-4.063c-14.546,4.797-25.78,17.039-31.63,34.473c-5.563,16.574-5.605,36.068-0.119,54.893
		c6.673,22.897,21.035,42.027,38.417,51.173c7.456,3.923,15.105,5.901,22.621,5.901c4.508,0,8.969-0.712,13.31-2.144
		c1.417-0.467,2.85-1.043,4.324-1.741c1.474,0.698,2.907,1.274,4.324,1.741c11.578,3.818,24.002,2.518,35.93-3.758
		c17.382-9.146,31.744-28.276,38.417-51.173C339.656,347.118,339.614,327.624,334.052,311.05z M319.769,361.746
		c-5.557,19.07-17.146,34.806-31,42.095c-8.242,4.336-16.627,5.3-24.249,2.787c-1.615-0.532-3.284-1.313-5.252-2.458
		c-2.33-1.354-5.207-1.354-7.537,0c-1.969,1.144-3.638,1.925-5.252,2.458c-7.624,2.513-16.006,1.549-24.249-2.787
		c-13.854-7.289-25.443-23.025-31-42.095c-4.638-15.914-4.66-32.223-0.062-45.923c4.31-12.842,12.161-21.72,22.107-25
		c2.753-0.908,5.605-1.359,8.516-1.359c5.247,0,10.681,1.468,16.057,4.373c11.053,5.975,24.25,5.975,35.304,0
		c8.357-4.517,16.853-5.559,24.572-3.014c9.946,3.28,17.798,12.158,22.107,25C324.429,329.522,324.407,345.832,319.769,361.746z"/>
	<path d="M301.527,315.998c-0.836-1.606-1.76-3.045-2.748-4.276c-2.592-3.231-7.312-3.749-10.543-1.157
		c-3.231,2.592-3.749,7.313-1.157,10.543c0.257,0.32,0.664,0.895,1.141,1.812c0.619,1.189,1.496,3.233,2.16,6.213
		c0.779,3.493,3.877,5.87,7.313,5.87c0.541,0,1.089-0.059,1.639-0.181c4.042-0.902,6.589-4.91,5.688-8.953
		C304.203,322.205,303.028,318.884,301.527,315.998z"/>
	<path d="M298.347,347.69c-3.979-1.159-8.14,1.125-9.299,5.102c-4.526,15.533-13.228,22.335-16.087,23.176
		c-3.909-0.273-7.408,2.538-7.942,6.478c-0.554,4.09,2.311,7.86,6.399,8.435c0.564,0.079,1.127,0.119,1.671,0.119
		c8.491,0,23.524-10.552,30.361-34.011C304.608,353.013,302.323,348.85,298.347,347.69z"/>
	<path d="M447.027,399.562L422.978,86.925c-1.84-24.082-20.374-46.272-52.186-62.482C339.86,8.681,298.915,0,255.5,0
		C165.869,0,90.771,39.021,88.016,86.999L63.973,399.562c-2.204,28.651,7.73,57.177,27.255,78.261
		C110.753,498.907,138.432,511,167.168,511h176.664c28.736,0,56.416-12.093,75.94-33.177
		C439.297,456.739,449.231,428.213,447.027,399.562z M408.766,467.631C391.825,485.925,368.765,496,343.832,496H167.168
		c-24.933,0-47.994-10.075-64.935-28.369c-16.94-18.294-25.217-42.059-23.305-66.919l24.049-312.637
		c0.004-0.053,0.007-0.106,0.01-0.159c0.982-17.676,16.903-35.717,43.682-49.497C176.016,23.317,214.666,15,255.5,15
		c41.092,0,79.619,8.1,108.482,22.808c26.975,13.745,42.615,31.596,44.04,50.263c0,0.001,0,0.003,0,0.004l24.049,312.637
		C433.984,425.572,425.707,449.337,408.766,467.631z"/>
	<path d="M337.65,46.665C315.584,37.208,286.409,32,255.5,32s-60.084,5.208-82.15,14.665C149.264,56.987,136,71.489,136,87.5
		c0,52.659,42.841,95.5,95.5,95.5h48c52.659,0,95.5-42.841,95.5-95.5C375,71.489,361.736,56.987,337.65,46.665z M279.5,168h-48
		c-44.388,0-80.5-36.112-80.5-80.5C151,68.344,193.916,47,255.5,47S360,68.344,360,87.5C360,131.888,323.888,168,279.5,168z"/>
	<path d="M379.605,136.053c0.303,3.935,3.589,6.925,7.47,6.925c0.193,0,0.388-0.007,0.583-0.023c4.13-0.317,7.221-3.923,6.903-8.053
		l-0.287-3.732c-0.004-0.086,0-0.171-0.007-0.257l-0.307-3.988c-0.298-3.875-3.487-6.832-7.294-6.922
		c-0.205-0.005-0.414,0.004-0.622,0.016c-0.046,0.003-0.091,0-0.137,0.003c-0.001,0-0.001,0-0.001,0c-0.004,0-0.008,0-0.011,0
		c-4.13,0.317-7.221,3.923-6.903,8.053L379.605,136.053z"/>
	<path d="M111.042,414.391c-0.488-4.113-4.219-7.054-8.331-6.564c-4.113,0.488-7.052,4.218-6.564,8.331
		c0.712,6,2.188,11.88,4.388,17.477c1.161,2.954,3.989,4.758,6.982,4.758c0.913,0,1.841-0.168,2.742-0.522
		c3.855-1.516,5.751-5.869,4.236-9.724C112.764,423.744,111.602,419.116,111.042,414.391z"/>
	<path d="M104.346,389.53c0.196,0.016,0.39,0.022,0.583,0.022c3.88,0,7.167-2.99,7.47-6.925l1.239-16.1
		c0.318-4.13-2.773-7.736-6.903-8.054c-4.128-0.319-7.736,2.772-8.053,6.902l-1.239,16.101
		C97.126,385.607,100.217,389.213,104.346,389.53z"/>
	<path d="M115.725,241.61c0.196,0.015,0.39,0.022,0.583,0.022c3.88,0,7.167-2.991,7.47-6.925l1.238-16.1
		c0.317-4.13-2.773-7.735-6.903-8.054c-4.129-0.313-7.736,2.773-8.053,6.903l-1.238,16.1
		C108.505,237.687,111.595,241.292,115.725,241.61z"/>
	<path d="M119.518,192.303c0.196,0.015,0.39,0.022,0.583,0.022c3.881,0,7.167-2.991,7.47-6.925l1.239-16.1
		c0.318-4.13-2.773-7.736-6.903-8.054c-4.126-0.318-7.735,2.772-8.053,6.902l-1.239,16.101
		C112.298,188.38,115.388,191.985,119.518,192.303z"/>
	<path d="M392.855,210.513c-4.13,0.318-7.22,3.923-6.903,8.053l1.238,16.1c0.303,3.935,3.589,6.925,7.47,6.925
		c0.193,0,0.388-0.007,0.583-0.022c4.13-0.318,7.22-3.923,6.903-8.054l-1.238-16.1C400.591,213.285,396.982,210.195,392.855,210.513
		z"/>
	<path d="M404.234,358.434c-4.13,0.317-7.22,3.923-6.903,8.053l1.238,16.1c0.303,3.935,3.589,6.926,7.47,6.926
		c0.193,0,0.388-0.008,0.583-0.022c4.13-0.318,7.22-3.923,6.903-8.054l-1.238-16.1C411.969,361.206,408.361,358.117,404.234,358.434
		z"/>
	<path d="M389.062,161.206c-4.13,0.317-7.22,3.923-6.903,8.053l1.238,16.1c0.303,3.935,3.589,6.925,7.47,6.925
		c0.193,0,0.388-0.007,0.583-0.022c4.13-0.318,7.22-3.923,6.903-8.053l-1.238-16.1C396.798,163.979,393.185,160.893,389.062,161.206
		z"/>
	<path d="M110.528,309.168c-4.125-0.314-7.735,2.772-8.053,6.902l-1.238,16.101c-0.317,4.13,2.773,7.735,6.903,8.053
		c0.196,0.015,0.39,0.022,0.583,0.022c3.88,0,7.167-2.991,7.47-6.925l1.238-16.101C117.748,313.091,114.658,309.485,110.528,309.168
		z"/>
	<path d="M189.399,464.003h-16.148c-4.142,0-7.5,3.358-7.5,7.5s3.358,7.5,7.5,7.5h16.148c4.142,0,7.5-3.358,7.5-7.5
		S193.541,464.003,189.399,464.003z"/>
	<path d="M402.246,340.206c0.193,0,0.388-0.007,0.583-0.023c4.13-0.317,7.22-3.923,6.903-8.053l-1.239-16.101
		c-0.318-4.13-3.939-7.22-8.053-6.902c-4.13,0.317-7.221,3.923-6.903,8.053l1.239,16.1
		C395.079,337.215,398.365,340.206,402.246,340.206z"/>
	<path d="M399.037,290.876c4.13-0.318,7.22-3.923,6.903-8.053l-1.238-16.1c-0.318-4.13-3.921-7.221-8.053-6.903
		c-4.13,0.318-7.22,3.923-6.903,8.053l1.238,16.1c0.303,3.934,3.589,6.925,7.47,6.925
		C398.647,290.898,398.841,290.891,399.037,290.876z"/>
	<path d="M379.228,451.557c-3.708,3.005-7.768,5.517-12.069,7.467c-3.773,1.71-5.444,6.155-3.734,9.928
		c1.255,2.768,3.981,4.405,6.835,4.405c1.036,0,2.088-0.216,3.092-0.671c5.465-2.478,10.619-5.665,15.319-9.474
		c3.218-2.608,3.713-7.331,1.105-10.549C387.17,449.444,382.447,448.949,379.228,451.557z"/>
	<path d="M408.263,407.786c-4.114-0.487-7.842,2.456-8.328,6.569c-0.558,4.729-1.717,9.358-3.444,13.759
		c-1.513,3.855,0.386,8.208,4.242,9.722c0.9,0.353,1.826,0.52,2.738,0.52c2.994,0,5.823-1.806,6.983-4.762
		c2.196-5.596,3.669-11.478,4.378-17.48C415.318,412,412.376,408.271,408.263,407.786z"/>
	<path d="M288.304,464.003h-16.148c-4.142,0-7.5,3.358-7.5,7.5s3.358,7.5,7.5,7.5h16.148c4.142,0,7.5-3.358,7.5-7.5
		S292.447,464.003,288.304,464.003z"/>
	<path d="M238.852,464.003h-16.148c-4.142,0-7.5,3.358-7.5,7.5s3.358,7.5,7.5,7.5h16.148c4.142,0,7.5-3.358,7.5-7.5
		S242.994,464.003,238.852,464.003z"/>
	<path d="M143.843,459.037c-4.302-1.948-8.364-4.457-12.074-7.46c-3.219-2.605-7.941-2.109-10.548,1.112
		c-2.605,3.22-2.108,7.942,1.112,10.548c4.703,3.806,9.858,6.991,15.324,9.465c1.004,0.454,2.054,0.669,3.089,0.669
		c2.854,0,5.583-1.639,6.837-4.409C149.29,465.189,147.616,460.745,143.843,459.037z"/>
	<path d="M337.757,464.003h-16.148c-4.142,0-7.5,3.358-7.5,7.5s3.358,7.5,7.5,7.5h16.148c4.142,0,7.5-3.358,7.5-7.5
		S341.899,464.003,337.757,464.003z"/>
	<path d="M121.224,267.914c0.317-4.13-2.773-7.735-6.903-8.053c-4.132-0.314-7.736,2.773-8.053,6.903l-1.238,16.1
		c-0.317,4.13,2.773,7.736,6.903,8.053c0.196,0.015,0.39,0.022,0.583,0.022c3.88,0,7.167-2.991,7.47-6.925L121.224,267.914z"/>
	<path d="M123.315,142.956c0.196,0.015,0.39,0.022,0.583,0.022c3.88,0,7.167-2.991,7.47-6.925l0.284-3.688
		c0.012-0.101,0.03-0.199,0.038-0.301l0.307-3.988c0.317-4.13-2.773-7.735-6.903-8.053c-0.26-0.02-0.518-0.026-0.773-0.019
		c-3.803,0.09-6.997,3.047-7.295,6.922l-0.613,7.977C116.094,139.032,119.184,142.638,123.315,142.956z"/>
</g>
</svg>
